<svg width="25" height="24" viewBox="0 0 25 24" fill="none" xmlns="http://www.w3.org/2000/svg">
<g clip-path="url(#clip0_116_2036)">
<path d="M9.42015 18.7821L7.48915 18.2641L8.27615 15.3251C7.09812 14.8906 6.00327 14.2575 5.03915 13.4531L2.88615 15.6071L1.47115 14.1921L3.62515 12.0391C2.40923 10.5829 1.59224 8.83587 1.25415 6.96911L3.22215 6.61011C3.98115 10.8121 7.65715 14.0001 12.0782 14.0001C16.4982 14.0001 20.1751 10.8121 20.9342 6.61011L22.9021 6.96811C22.5645 8.83512 21.7479 10.5825 20.5322 12.0391L22.6852 14.1921L21.2701 15.6071L19.1171 13.4531C18.153 14.2575 17.0582 14.8906 15.8802 15.3251L16.6672 18.2651L14.7362 18.7821L13.9482 15.8421C12.7105 16.0542 11.4458 16.0542 10.2082 15.8421L9.42015 18.7821Z" fill="#4B5563"/>
</g>
<defs>
<clipPath id="clip0_116_2036">
<rect width="24" height="24" fill="white" transform="translate(0.078125)"/>
</clipPath>
</defs>
</svg>
