<svg width="46" height="46" viewBox="0 0 46 46" fill="none" xmlns="http://www.w3.org/2000/svg">
<circle cx="23" cy="23" r="23" fill="#1F2937"/>
<path d="M23.5 21.4084V25.8621H29.689C29.4173 27.2943 28.6017 28.5071 27.3786 29.3225L31.1108 32.2184C33.2853 30.2112 34.5399 27.263 34.5399 23.7608C34.5399 22.9454 34.4667 22.1612 34.3307 21.4086L23.5 21.4084Z" fill="#F5F5F5"/>
<path d="M17.0547 25.688L16.213 26.3323L13.2334 28.6532C15.1257 32.4063 19.004 34.9991 23.4994 34.9991C26.6043 34.9991 29.2074 33.9745 31.1101 32.2182L27.3779 29.3223C26.3534 30.0123 25.0466 30.4305 23.4994 30.4305C20.5094 30.4305 17.969 28.4128 17.0594 25.6946L17.0547 25.688Z" fill="#F5F5F5"/>
<path d="M13.2335 18.3459C12.4495 19.8931 12 21.6391 12 23.4999C12 25.3608 12.4495 27.1067 13.2335 28.6539C13.2335 28.6643 17.0599 25.6848 17.0599 25.6848C16.8299 24.9949 16.694 24.2631 16.694 23.4998C16.694 22.7365 16.8299 22.0048 17.0599 21.3148L13.2335 18.3459Z" fill="#F5F5F5"/>
<path d="M23.4996 16.5791C25.1932 16.5791 26.6987 17.1645 27.9009 18.2936L31.194 15.0005C29.1972 13.1396 26.6046 12 23.4996 12C19.0042 12 15.1257 14.5822 13.2334 18.3459L17.0597 21.3149C17.9692 18.5967 20.5096 16.5791 23.4996 16.5791Z" fill="#F5F5F5"/>
</svg>
