<svg width="46" height="46" viewBox="0 0 46 46" fill="none" xmlns="http://www.w3.org/2000/svg">
<circle cx="23" cy="23" r="23" fill="#1F2937"/>
<path d="M23.0665 11.1006C15.9107 11.1006 10.1399 15.7172 10.1399 21.3218C10.1399 24.9597 12.5405 28.1451 16.1415 29.9641L14.9227 34.5161C14.8997 34.5844 14.8962 34.6576 14.9125 34.7277C14.9288 34.7978 14.9643 34.862 15.0151 34.9131C15.089 34.9783 15.1842 35.0144 15.2828 35.0147C15.3646 35.0081 15.4422 34.9758 15.5044 34.9223L20.7489 31.386C21.5231 31.4929 22.3034 31.5484 23.0849 31.5522C30.2315 31.5522 36.0115 26.9356 36.0115 21.3218C36.0115 15.7079 30.213 11.1006 23.0665 11.1006Z" fill="#F5F5F5"/>
<path d="M14.6639 19.706H13.2512C13.0761 19.7111 12.9032 19.6662 12.7526 19.5767C12.6858 19.5348 12.6283 19.4795 12.5838 19.4144C12.5393 19.3493 12.5088 19.2756 12.4941 19.1981C12.4896 19.149 12.4896 19.0996 12.4941 19.0505C12.4897 18.9585 12.5075 18.8668 12.5461 18.7832C12.5847 18.6996 12.6429 18.6266 12.7157 18.5703C12.8767 18.4537 13.0709 18.3921 13.2697 18.3948H17.5262C17.7027 18.3886 17.8768 18.437 18.0248 18.5333C18.0932 18.5734 18.1519 18.6281 18.1966 18.6936C18.2413 18.7591 18.271 18.8336 18.2833 18.9119C18.2879 18.958 18.2879 19.0044 18.2833 19.0505C18.2877 19.1437 18.2699 19.2367 18.2314 19.3218C18.1929 19.4068 18.1347 19.4815 18.0617 19.5397C17.9047 19.6562 17.7123 19.7149 17.517 19.706H16.1505V24.5627C16.156 24.6662 16.14 24.7696 16.1034 24.8666C16.0669 24.9635 16.0106 25.0519 15.9381 25.1259C15.8686 25.1967 15.785 25.2522 15.6928 25.2888C15.6006 25.3253 15.5017 25.3422 15.4026 25.3383C15.2292 25.3432 15.0594 25.2878 14.9224 25.1814C14.792 25.0774 14.7035 24.9298 14.6731 24.7658C14.664 24.6984 14.664 24.6301 14.6731 24.5627L14.6639 19.706Z" fill="#1F2937"/>
<path d="M18.6908 18.7549C18.7314 18.603 18.8268 18.4714 18.9586 18.3856C19.099 18.306 19.259 18.2676 19.4202 18.2748H19.7711C19.9422 18.2686 20.1116 18.3102 20.2604 18.3948C20.4182 18.5009 20.5302 18.6624 20.5744 18.8472L22.421 24.0641C22.4689 24.2002 22.509 24.339 22.5411 24.4796C22.5442 24.5381 22.5442 24.5966 22.5411 24.655C22.5442 24.745 22.5276 24.8346 22.4925 24.9175C22.4574 25.0004 22.4047 25.0747 22.3379 25.1351C22.2732 25.2014 22.1956 25.2537 22.1098 25.2887C22.024 25.3236 21.9319 25.3405 21.8393 25.3382C21.6969 25.3524 21.5539 25.3183 21.4333 25.2412C21.3127 25.1642 21.2215 25.0487 21.1745 24.9136L20.7867 23.7779H18.3584L17.9706 24.9136C17.9247 25.0514 17.8325 25.1691 17.7096 25.2465C17.5867 25.324 17.4407 25.3564 17.2966 25.3382C17.1404 25.3423 16.9875 25.2935 16.8626 25.1997C16.7409 25.103 16.6588 24.9651 16.6318 24.812C16.6269 24.7598 16.6269 24.7072 16.6318 24.655C16.6159 24.5633 16.6159 24.4697 16.6318 24.3781C16.6318 24.2765 16.6964 24.1656 16.7333 24.0641L18.6908 18.7549ZM19.6141 19.9645L18.7369 22.7345H20.482L19.6141 19.9645Z" fill="#1F2937"/>
<path d="M22.7525 19.0504C22.7431 18.8432 22.8162 18.6407 22.9556 18.4872C23.0265 18.4156 23.1117 18.3597 23.2055 18.3232C23.2993 18.2866 23.3998 18.27 23.5004 18.2747C23.6734 18.2727 23.8422 18.3279 23.9805 18.4317C24.1088 18.54 24.194 18.6907 24.2206 18.8564C24.2297 18.9207 24.2297 18.9861 24.2206 19.0504V23.9071H26.7597C26.9357 23.9048 27.1087 23.9527 27.2583 24.0455C27.3256 24.0869 27.3833 24.1421 27.4279 24.2073C27.4724 24.2726 27.5027 24.3464 27.5169 24.4241C27.5169 24.4241 27.5169 24.5164 27.5169 24.5626C27.5213 24.6546 27.5034 24.7461 27.4648 24.8297C27.4263 24.9133 27.3681 24.9864 27.2953 25.0428C27.1343 25.1593 26.94 25.2208 26.7413 25.2181H23.6204C23.4217 25.2309 23.2241 25.1792 23.0572 25.0705C22.9079 24.9589 22.8085 24.7931 22.7802 24.6088C22.7734 24.5074 22.7734 24.4055 22.7802 24.304L22.7525 19.0504Z" fill="#1F2937"/>
<path d="M27.6833 19.0504C27.6778 18.8438 27.7503 18.6427 27.8865 18.4872C28.0248 18.3615 28.2024 18.2872 28.3891 18.2771C28.5758 18.267 28.7602 18.3217 28.9114 18.4318C29.0424 18.5391 29.1308 18.6897 29.1607 18.8565C29.1652 18.921 29.1652 18.9859 29.1607 19.0504V21.3126L31.4967 18.6164C31.5867 18.5244 31.6823 18.4382 31.7829 18.358C31.8777 18.3015 31.9865 18.2726 32.0968 18.2748C32.2582 18.2739 32.416 18.3222 32.5493 18.4133C32.612 18.4556 32.6657 18.5101 32.7069 18.5736C32.7482 18.637 32.7762 18.7081 32.7893 18.7826C32.7931 18.8009 32.7931 18.8198 32.7893 18.8381C32.7848 18.8594 32.7848 18.8814 32.7893 18.9027C32.789 18.9998 32.7636 19.0953 32.7155 19.1797C32.6665 19.2691 32.6076 19.3526 32.54 19.4289L31.0073 21.1094L32.854 23.9717V24.064C32.9498 24.1964 33.0246 24.3428 33.0756 24.4981V24.5442C33.0862 24.6512 33.0708 24.7592 33.0306 24.8589C32.9904 24.9586 32.9266 25.047 32.8447 25.1167C32.6907 25.2331 32.5023 25.2949 32.3092 25.2921C32.1809 25.2974 32.0535 25.2687 31.9399 25.209C31.8169 25.1265 31.7156 25.0157 31.6444 24.8858L29.927 22.1158L29.1053 22.9746V24.5165C29.1108 24.7231 29.0383 24.9242 28.9021 25.0797C28.8292 25.151 28.7424 25.2067 28.6471 25.2432C28.5518 25.2797 28.4501 25.2964 28.3481 25.2921C28.1778 25.2957 28.0114 25.2402 27.8772 25.1351C27.7468 25.0312 27.6583 24.8837 27.6279 24.7197C27.6188 24.6523 27.6188 24.5839 27.6279 24.5165L27.6833 19.0504Z" fill="#1F2937"/>
</svg>
